# xmcd
# 
# Track frame offsets:
#     150
#     10533
#     21643
#     34686
#     43901
#     56325
#     68793
#     80067
#     91532
#     102622
#     114284
#     126189
#     137459
#     150650
#     164326
#     174198
#     187664
# 
# Disc length: 2696
# 
# Revision: 3
# Processed by: cddbd v1.5.2PL0 Copyright (c) Steve Scherf et al.
# Submitted via: fre:ac v1.1beta1pre3
# 
DISCID=cd0a8611
DTITLE=George Jones - The Great Lost Hits ( Disc 1 )
DYEAR=2010
DGENRE=Country
TTITLE0=Walk Through This World With Me
TTITLE1=I Can't Get There From Here
TTITLE2=Things Have Gone To Pieces
TTITLE3=Love Bug
TTITLE4=If My Heart Had Windows
TTITLE5=Take Me
TTITLE6=Four-O-Thirty-Three
TTITLE7=I'll Share My World with You
TTITLE8=Say It's Not You
TTITLE9=Small Time Laboring Man
TTITLE10=Milwaukee, Here I Come
TTITLE11=As Long As I Live
TTITLE12=When the Grass Grows Over Me
TTITLE13=If Not For You
TTITLE14=I'm A People
TTITLE15=She's Mine
TTITLE16=Where Grass Won't Grow
EXTD=
EXTT0=
EXTT1=
EXTT2=
EXTT3=
EXTT4=
EXTT5=
EXTT6=
EXTT7=
EXTT8=
EXTT9=
EXTT10=
EXTT11=
EXTT12=
EXTT13=
EXTT14=
EXTT15=
EXTT16=
PLAYORDER=
